<svg xmlns="http://www.w3.org/2000/svg" xmlns:xlink="http://www.w3.org/1999/xlink" version="1.1"
    width="400" height="400" viewBox="0 0 400 400" xml:space="preserve">
<desc>Created with Fabric.js 3.6.2</desc>
<defs>
</defs>
<g transform="matrix(3.13 0 0 3.13 200 200)" id="payment_x5F_way"  >
<path style="stroke: none; stroke-width: 1; stroke-dasharray: none; stroke-linecap: butt; stroke-dashoffset: 0; stroke-linejoin: miter; stroke-miterlimit: 4; fill: rgb(25,118,210); fill-rule: nonzero; opacity: 1;"  transform=" translate(-32, -32)" d="M 58 55 H 6 c -2.8 0 -5 -2.2 -5 -5 V 14 c 0 -2.8 2.2 -5 5 -5 h 52 c 2.8 0 5 2.2 5 5 v 36 C 63 52.8 60.8 55 58 55 z" stroke-linecap="round" />
</g>
<g transform="matrix(3.13 0 0 3.13 200 159.38)" id="payment_x5F_way"  >
<rect style="stroke: none; stroke-width: 1; stroke-dasharray: none; stroke-linecap: butt; stroke-dashoffset: 0; stroke-linejoin: miter; stroke-miterlimit: 4; fill: rgb(38,50,56); fill-rule: nonzero; opacity: 1;"  x="-31" y="-5" rx="0" ry="0" width="62" height="10" />
</g>
<g transform="matrix(3.13 0 0 3.13 200 190.63)" id="payment_x5F_way"  >
<rect style="stroke: none; stroke-width: 1; stroke-dasharray: none; stroke-linecap: butt; stroke-dashoffset: 0; stroke-linejoin: miter; stroke-miterlimit: 4; fill: rgb(224,247,250); fill-rule: nonzero; opacity: 1;"  x="-23" y="-4" rx="0" ry="0" width="46" height="8" />
</g>
<g transform="matrix(3.13 0 0 3.13 134.53 184.53)" id="payment_x5F_way"  >
<line style="stroke: rgb(21,101,192); stroke-width: 1; stroke-dasharray: none; stroke-linecap: butt; stroke-dashoffset: 0; stroke-linejoin: miter; stroke-miterlimit: 10; fill: none; fill-rule: nonzero; opacity: 1;"  x1="-1.5499999999999998" y1="1.5500000000000007" x2="1.5499999999999998" y2="-1.5500000000000007" />
</g>
<g transform="matrix(3.13 0 0 3.13 147.5 190.63)" id="payment_x5F_way"  >
<line style="stroke: rgb(21,101,192); stroke-width: 1; stroke-dasharray: none; stroke-linecap: butt; stroke-dashoffset: 0; stroke-linejoin: miter; stroke-miterlimit: 10; fill: none; fill-rule: nonzero; opacity: 1;"  x1="-3.5" y1="3.5" x2="3.5" y2="-3.5" />
</g>
<g transform="matrix(3.13 0 0 3.13 166.56 190.63)" id="payment_x5F_way"  >
<line style="stroke: rgb(21,101,192); stroke-width: 1; stroke-dasharray: none; stroke-linecap: butt; stroke-dashoffset: 0; stroke-linejoin: miter; stroke-miterlimit: 10; fill: none; fill-rule: nonzero; opacity: 1;"  x1="3.5" y1="-3.5" x2="-3.5" y2="3.5" />
</g>
<g transform="matrix(3.13 0 0 3.13 185.63 190.63)" id="payment_x5F_way"  >
<line style="stroke: rgb(21,101,192); stroke-width: 1; stroke-dasharray: none; stroke-linecap: butt; stroke-dashoffset: 0; stroke-linejoin: miter; stroke-miterlimit: 10; fill: none; fill-rule: nonzero; opacity: 1;"  x1="3.5" y1="-3.5" x2="-3.5" y2="3.5" />
</g>
<g transform="matrix(3.13 0 0 3.13 204.69 190.63)" id="payment_x5F_way"  >
<line style="stroke: rgb(21,101,192); stroke-width: 1; stroke-dasharray: none; stroke-linecap: butt; stroke-dashoffset: 0; stroke-linejoin: miter; stroke-miterlimit: 10; fill: none; fill-rule: nonzero; opacity: 1;"  x1="3.5" y1="-3.5" x2="-3.5" y2="3.5" />
</g>
<g transform="matrix(3.13 0 0 3.13 223.75 190.63)" id="payment_x5F_way"  >
<line style="stroke: rgb(21,101,192); stroke-width: 1; stroke-dasharray: none; stroke-linecap: butt; stroke-dashoffset: 0; stroke-linejoin: miter; stroke-miterlimit: 10; fill: none; fill-rule: nonzero; opacity: 1;"  x1="3.5" y1="-3.5" x2="-3.5" y2="3.5" />
</g>
<g transform="matrix(3.13 0 0 3.13 243.13 190.63)" id="payment_x5F_way"  >
<line style="stroke: rgb(21,101,192); stroke-width: 1; stroke-dasharray: none; stroke-linecap: butt; stroke-dashoffset: 0; stroke-linejoin: miter; stroke-miterlimit: 10; fill: none; fill-rule: nonzero; opacity: 1;"  x1="3.5" y1="-3.5" x2="-3.5" y2="3.5" />
</g>
<g transform="matrix(3.13 0 0 3.13 260.78 192.03)" id="payment_x5F_way"  >
<line style="stroke: rgb(21,101,192); stroke-width: 1; stroke-dasharray: none; stroke-linecap: butt; stroke-dashoffset: 0; stroke-linejoin: miter; stroke-miterlimit: 10; fill: none; fill-rule: nonzero; opacity: 1;"  x1="3.0500000000000007" y1="-3.0500000000000007" x2="-3.0500000000000007" y2="3.0500000000000007" />
</g>
<g transform="matrix(3.13 0 0 3.13 144.06 184.38)" id="payment_x5F_way"  >
<line style="stroke: rgb(251,192,45); stroke-width: 1; stroke-dasharray: none; stroke-linecap: butt; stroke-dashoffset: 0; stroke-linejoin: miter; stroke-miterlimit: 10; fill: none; fill-rule: nonzero; opacity: 1;"  x1="-1.5" y1="1.5" x2="1.5" y2="-1.5" />
</g>
<g transform="matrix(3.13 0 0 3.13 163.13 184.38)" id="payment_x5F_way"  >
<line style="stroke: rgb(251,192,45); stroke-width: 1; stroke-dasharray: none; stroke-linecap: butt; stroke-dashoffset: 0; stroke-linejoin: miter; stroke-miterlimit: 10; fill: none; fill-rule: nonzero; opacity: 1;"  x1="1.5" y1="-1.5" x2="-1.5" y2="1.5" />
</g>
<g transform="matrix(3.13 0 0 3.13 182.5 184.38)" id="payment_x5F_way"  >
<line style="stroke: rgb(251,192,45); stroke-width: 1; stroke-dasharray: none; stroke-linecap: butt; stroke-dashoffset: 0; stroke-linejoin: miter; stroke-miterlimit: 10; fill: none; fill-rule: nonzero; opacity: 1;"  x1="1.5" y1="-1.5" x2="-1.5" y2="1.5" />
</g>
<g transform="matrix(3.13 0 0 3.13 201.56 184.38)" id="payment_x5F_way"  >
<line style="stroke: rgb(251,192,45); stroke-width: 1; stroke-dasharray: none; stroke-linecap: butt; stroke-dashoffset: 0; stroke-linejoin: miter; stroke-miterlimit: 10; fill: none; fill-rule: nonzero; opacity: 1;"  x1="1.5" y1="-1.5" x2="-1.5" y2="1.5" />
</g>
<g transform="matrix(3.13 0 0 3.13 220.63 184.38)" id="payment_x5F_way"  >
<line style="stroke: rgb(251,192,45); stroke-width: 1; stroke-dasharray: none; stroke-linecap: butt; stroke-dashoffset: 0; stroke-linejoin: miter; stroke-miterlimit: 10; fill: none; fill-rule: nonzero; opacity: 1;"  x1="1.5" y1="-1.5" x2="-1.5" y2="1.5" />
</g>
<g transform="matrix(3.13 0 0 3.13 239.69 184.38)" id="payment_x5F_way"  >
<line style="stroke: rgb(251,192,45); stroke-width: 1; stroke-dasharray: none; stroke-linecap: butt; stroke-dashoffset: 0; stroke-linejoin: miter; stroke-miterlimit: 10; fill: none; fill-rule: nonzero; opacity: 1;"  x1="1.5" y1="-1.5" x2="-1.5" y2="1.5" />
</g>
<g transform="matrix(3.13 0 0 3.13 258.75 184.38)" id="payment_x5F_way"  >
<line style="stroke: rgb(251,192,45); stroke-width: 1; stroke-dasharray: none; stroke-linecap: butt; stroke-dashoffset: 0; stroke-linejoin: miter; stroke-miterlimit: 10; fill: none; fill-rule: nonzero; opacity: 1;"  x1="1.5" y1="-1.5" x2="-1.5" y2="1.5" />
</g>
<g transform="matrix(3.13 0 0 3.13 265.47 196.72)" id="payment_x5F_way"  >
<line style="stroke: rgb(198,40,40); stroke-width: 1; stroke-dasharray: none; stroke-linecap: butt; stroke-dashoffset: 0; stroke-linejoin: miter; stroke-miterlimit: 10; fill: none; fill-rule: nonzero; opacity: 1;"  x1="1.5500000000000007" y1="-1.5500000000000007" x2="-1.5500000000000007" y2="1.5500000000000007" />
</g>
<g transform="matrix(3.13 0 0 3.13 132.97 195.47)" id="payment_x5F_way"  >
<line style="stroke: rgb(198,40,40); stroke-width: 1; stroke-dasharray: none; stroke-linecap: butt; stroke-dashoffset: 0; stroke-linejoin: miter; stroke-miterlimit: 10; fill: none; fill-rule: nonzero; opacity: 1;"  x1="1.0499999999999998" y1="-1.0500000000000007" x2="-1.0499999999999998" y2="1.0500000000000007" />
</g>
<g transform="matrix(3.13 0 0 3.13 150.63 196.88)" id="payment_x5F_way"  >
<line style="stroke: rgb(198,40,40); stroke-width: 1; stroke-dasharray: none; stroke-linecap: butt; stroke-dashoffset: 0; stroke-linejoin: miter; stroke-miterlimit: 10; fill: none; fill-rule: nonzero; opacity: 1;"  x1="1.5" y1="-1.5" x2="-1.5" y2="1.5" />
</g>
<g transform="matrix(3.13 0 0 3.13 170 196.88)" id="payment_x5F_way"  >
<line style="stroke: rgb(198,40,40); stroke-width: 1; stroke-dasharray: none; stroke-linecap: butt; stroke-dashoffset: 0; stroke-linejoin: miter; stroke-miterlimit: 10; fill: none; fill-rule: nonzero; opacity: 1;"  x1="-1.5" y1="1.5" x2="1.5" y2="-1.5" />
</g>
<g transform="matrix(3.13 0 0 3.13 189.06 196.88)" id="payment_x5F_way"  >
<line style="stroke: rgb(198,40,40); stroke-width: 1; stroke-dasharray: none; stroke-linecap: butt; stroke-dashoffset: 0; stroke-linejoin: miter; stroke-miterlimit: 10; fill: none; fill-rule: nonzero; opacity: 1;"  x1="-1.5" y1="1.5" x2="1.5" y2="-1.5" />
</g>
<g transform="matrix(3.13 0 0 3.13 208.13 196.88)" id="payment_x5F_way"  >
<line style="stroke: rgb(198,40,40); stroke-width: 1; stroke-dasharray: none; stroke-linecap: butt; stroke-dashoffset: 0; stroke-linejoin: miter; stroke-miterlimit: 10; fill: none; fill-rule: nonzero; opacity: 1;"  x1="-1.5" y1="1.5" x2="1.5" y2="-1.5" />
</g>
<g transform="matrix(3.13 0 0 3.13 227.19 196.88)" id="payment_x5F_way"  >
<line style="stroke: rgb(198,40,40); stroke-width: 1; stroke-dasharray: none; stroke-linecap: butt; stroke-dashoffset: 0; stroke-linejoin: miter; stroke-miterlimit: 10; fill: none; fill-rule: nonzero; opacity: 1;"  x1="-1.5" y1="1.5" x2="1.5" y2="-1.5" />
</g>
<g transform="matrix(3.13 0 0 3.13 246.25 196.88)" id="payment_x5F_way"  >
<line style="stroke: rgb(198,40,40); stroke-width: 1; stroke-dasharray: none; stroke-linecap: butt; stroke-dashoffset: 0; stroke-linejoin: miter; stroke-miterlimit: 10; fill: none; fill-rule: nonzero; opacity: 1;"  x1="-1.5" y1="1.5" x2="1.5" y2="-1.5" />
</g>
<g transform="matrix(3.13 0 0 3.13 256.25 231.25)" id="payment_x5F_way"  >
<path style="stroke: rgb(224,224,224); stroke-width: 1; stroke-dasharray: none; stroke-linecap: butt; stroke-dashoffset: 0; stroke-linejoin: miter; stroke-miterlimit: 10; fill: none; fill-rule: nonzero; opacity: 1;"  transform=" translate(-50, -42)" d="M 52 47.5 h -4 c -3 0 -5.5 -2.5 -5.5 -5.5 v 0 c 0 -3 2.5 -5.5 5.5 -5.5 h 4 c 3 0 5.5 2.5 5.5 5.5 v 0 C 57.5 45 55 47.5 52 47.5 z" stroke-linecap="round" />
</g>
<g transform="matrix(3.13 0 0 3.13 250 231.25)" id="payment_x5F_way"  >
<path style="stroke: none; stroke-width: 1; stroke-dasharray: none; stroke-linecap: butt; stroke-dashoffset: 0; stroke-linejoin: miter; stroke-miterlimit: 4; fill: rgb(211,47,47); fill-rule: nonzero; opacity: 1;"  transform=" translate(-48, -42)" d="M 48 38.5 c 0.7 0 1.4 0.2 2 0.6 c -0.9 0.6 -1.5 1.7 -1.5 2.9 h 3 c 0 1.2 -0.6 2.2 -1.5 2.9 c -0.6 0.4 -1.3 0.6 -2 0.6 c -1.9 0 -3.5 -1.6 -3.5 -3.5 S 46.1 38.5 48 38.5 z" stroke-linecap="round" />
</g>
<g transform="matrix(3.13 0 0 3.13 262.5 231.25)" id="payment_x5F_way"  >
<path style="stroke: none; stroke-width: 1; stroke-dasharray: none; stroke-linecap: butt; stroke-dashoffset: 0; stroke-linejoin: miter; stroke-miterlimit: 4; fill: rgb(245,124,0); fill-rule: nonzero; opacity: 1;"  transform=" translate(-52, -42)" d="M 48.5 42 c 0 -1.2 0.6 -2.2 1.5 -2.9 c 0.6 -0.4 1.3 -0.6 2 -0.6 c 1.9 0 3.5 1.6 3.5 3.5 s -1.6 3.5 -3.5 3.5 c -0.7 0 -1.4 -0.2 -2 -0.6 c 0.9 -0.6 1.5 -1.7 1.5 -2.9 H 48.5 z" stroke-linecap="round" />
</g>
<g transform="matrix(3.13 0 0 3.13 145.31 214.06)" id="payment_x5F_way"  >
<line style="stroke: rgb(224,224,224); stroke-width: 1; stroke-dasharray: none; stroke-linecap: butt; stroke-dashoffset: 0; stroke-linejoin: miter; stroke-miterlimit: 10; fill: none; fill-rule: nonzero; opacity: 1;"  x1="3.5" y1="0" x2="-3.5" y2="0" />
</g>
<g transform="matrix(3.13 0 0 3.13 125 214.06)" id="payment_x5F_way"  >
<line style="stroke: rgb(224,224,224); stroke-width: 1; stroke-dasharray: none; stroke-linecap: butt; stroke-dashoffset: 0; stroke-linejoin: miter; stroke-miterlimit: 10; fill: none; fill-rule: nonzero; opacity: 1;"  x1="2" y1="0" x2="-2" y2="0" />
</g>
<g transform="matrix(3.13 0 0 3.13 173.44 214.06)" id="payment_x5F_way"  >
<line style="stroke: rgb(224,224,224); stroke-width: 1; stroke-dasharray: none; stroke-linecap: butt; stroke-dashoffset: 0; stroke-linejoin: miter; stroke-miterlimit: 10; fill: none; fill-rule: nonzero; opacity: 1;"  x1="4.5" y1="0" x2="-4.5" y2="0" />
</g>
<g transform="matrix(3.13 0 0 3.13 178.13 220.31)" id="payment_x5F_way"  >
<line style="stroke: rgb(224,224,224); stroke-width: 1; stroke-dasharray: none; stroke-linecap: butt; stroke-dashoffset: 0; stroke-linejoin: miter; stroke-miterlimit: 10; fill: none; fill-rule: nonzero; opacity: 1;"  x1="-3" y1="0" x2="3" y2="0" />
</g>
<g transform="matrix(3.13 0 0 3.13 142.19 220.31)" id="payment_x5F_way"  >
<line style="stroke: rgb(224,224,224); stroke-width: 1; stroke-dasharray: none; stroke-linecap: butt; stroke-dashoffset: 0; stroke-linejoin: miter; stroke-miterlimit: 10; fill: none; fill-rule: nonzero; opacity: 1;"  x1="-7.5" y1="0" x2="7.5" y2="0" />
</g>
<g transform="matrix(3.13 0 0 3.13 178.13 232.81)" id="payment_x5F_way"  >
<line style="stroke: rgb(224,224,224); stroke-width: 1; stroke-dasharray: none; stroke-linecap: butt; stroke-dashoffset: 0; stroke-linejoin: miter; stroke-miterlimit: 10; fill: none; fill-rule: nonzero; opacity: 1;"  x1="-3" y1="0" x2="3" y2="0" />
</g>
<g transform="matrix(3.13 0 0 3.13 125 232.81)" id="payment_x5F_way"  >
<line style="stroke: rgb(224,224,224); stroke-width: 1; stroke-dasharray: none; stroke-linecap: butt; stroke-dashoffset: 0; stroke-linejoin: miter; stroke-miterlimit: 10; fill: none; fill-rule: nonzero; opacity: 1;"  x1="2" y1="0" x2="-2" y2="0" />
</g>
<g transform="matrix(3.13 0 0 3.13 150 232.81)" id="payment_x5F_way"  >
<line style="stroke: rgb(224,224,224); stroke-width: 1; stroke-dasharray: none; stroke-linecap: butt; stroke-dashoffset: 0; stroke-linejoin: miter; stroke-miterlimit: 10; fill: none; fill-rule: nonzero; opacity: 1;"  x1="5" y1="0" x2="-5" y2="0" />
</g>
<g transform="matrix(3.13 0 0 3.13 175 239.06)" id="payment_x5F_way"  >
<line style="stroke: rgb(224,224,224); stroke-width: 1; stroke-dasharray: none; stroke-linecap: butt; stroke-dashoffset: 0; stroke-linejoin: miter; stroke-miterlimit: 10; fill: none; fill-rule: nonzero; opacity: 1;"  x1="4" y1="0" x2="-4" y2="0" />
</g>
<g transform="matrix(3.13 0 0 3.13 139.06 239.06)" id="payment_x5F_way"  >
<line style="stroke: rgb(224,224,224); stroke-width: 1; stroke-dasharray: none; stroke-linecap: butt; stroke-dashoffset: 0; stroke-linejoin: miter; stroke-miterlimit: 10; fill: none; fill-rule: nonzero; opacity: 1;"  x1="6.5" y1="0" x2="-6.5" y2="0" />
</g>
<g transform="matrix(3.13 0 0 3.13 171.88 245.31)" id="payment_x5F_way"  >
<line style="stroke: rgb(224,224,224); stroke-width: 1; stroke-dasharray: none; stroke-linecap: butt; stroke-dashoffset: 0; stroke-linejoin: miter; stroke-miterlimit: 10; fill: none; fill-rule: nonzero; opacity: 1;"  x1="5" y1="0" x2="-5" y2="0" />
</g>
<g transform="matrix(3.13 0 0 3.13 135.94 245.31)" id="payment_x5F_way"  >
<line style="stroke: rgb(224,224,224); stroke-width: 1; stroke-dasharray: none; stroke-linecap: butt; stroke-dashoffset: 0; stroke-linejoin: miter; stroke-miterlimit: 10; fill: none; fill-rule: nonzero; opacity: 1;"  x1="-5.5" y1="0" x2="5.5" y2="0" />
</g>
</svg>